<svg width="24" height="24" viewBox="0 0 24 24" fill="none" xmlns="http://www.w3.org/2000/svg">
<path d="M21.546 11.646L19 9.10099V5.49999C19 5.22399 18.776 4.99999 18.5 4.99999H14.899L12.353 2.45399C12.158 2.25899 11.841 2.25899 11.646 2.45399L9.10099 4.99999H5.49999C5.22399 4.99999 4.99999 5.22399 4.99999 5.49999V9.10099L2.45399 11.647C2.25899 11.842 2.25899 12.159 2.45399 12.354L4.99999 14.899V18.5C4.99999 18.776 5.22399 19 5.49999 19H9.10099L11.647 21.546C11.842 21.741 12.159 21.741 12.354 21.546L14.899 19H18.5C18.776 19 19 18.776 19 18.5V14.899L21.546 12.353C21.741 12.158 21.741 11.842 21.546 11.646ZM12 16C9.79099 16 7.99999 14.209 7.99999 12C7.99999 9.79099 9.79099 7.99999 12 7.99999C14.209 7.99999 16 9.79099 16 12C16 14.209 14.209 16 12 16Z" fill="#034B04"/>
</svg>
