<svg width="40" height="52" viewBox="0 0 40 52" fill="none" xmlns="http://www.w3.org/2000/svg">
<path d="M25 0C16.729 0 10 5.3835 10 12C10 16.362 12.847 20.2725 17.5 22.401V30L25.51 23.9925C33.5455 23.778 40 18.48 40 12C40 5.3835 33.271 0 25 0ZM25 21H24.5005L20.5 24V20.3745L19.5385 20.004C15.505 18.4515 13 15.384 13 12C13 7.0365 18.3835 3 25 3C31.6165 3 37 7.0365 37 12C37 16.9635 31.6165 21 25 21Z" fill="#034B04"/>
<path d="M17.5 7.5H32.5V10.5H17.5V7.5ZM17.5 13.5H28V16.5H17.5V13.5Z" fill="#E9C939"/>
<path d="M12.5534 30.3859L12.5536 30.3861C13.2061 31.1051 13.1746 32.2118 12.4762 32.8892L12.5534 30.3859ZM12.5534 30.3859L7.01133 24.2904L6.78892 24.4917L7.01089 24.2899L7.01115 24.2902C6.35711 23.5679 5.24657 23.5002 4.50728 24.1334L4.50713 24.1335L1.25213 26.925L1.24308 26.9328L1.23468 26.9412C0.923859 27.2538 0.738352 27.6676 0.712961 28.1083M12.5534 30.3859L12.4757 32.8897L8.90493 36.366C9.09173 37.2231 9.64758 38.8078 11.2806 40.4422C12.9138 42.071 14.4947 42.6268 15.3569 42.8172L18.8318 39.2437C19.5085 38.5471 20.6171 38.5129 21.3353 39.1663L27.4325 44.7101C28.1528 45.3638 28.223 46.4731 27.5857 47.213L24.7962 50.4689L24.789 50.4774L24.7812 50.4852C24.4693 50.7989 24.0545 50.9845 23.6135 51.0097M23.6135 51.0097L23.5964 50.7102M23.6135 51.0097C23.6139 51.0097 23.6142 51.0097 23.6146 51.0097L23.5964 50.7102M23.6135 51.0097C23.5562 51.0132 23.3646 51.0222 23.0579 51.0222C20.9556 51.0222 13.3297 50.5788 7.23682 44.4874L7.23674 44.4873C0.254358 37.5019 0.689124 28.5056 0.712961 28.1083M23.5964 50.7102C23.9639 50.6892 24.3089 50.5347 24.5684 50.2737M23.5964 50.7102C23.5469 50.7132 23.3609 50.7222 23.0579 50.7222L24.5684 50.2737M0.712961 28.1083L1.01242 28.1262L0.712912 28.1091C0.712928 28.1088 0.712945 28.1085 0.712961 28.1083ZM24.5684 50.2737L27.3584 47.0172L24.5684 50.2737Z" fill="#E9C939" stroke="#034B04" stroke-width="0.6"/>
</svg>
