<svg width="39" height="42" viewBox="0 0 39 42" fill="none" xmlns="http://www.w3.org/2000/svg">
<path d="M11.3929 13.9286C11.3929 6.38643 17.5293 0.25 25.0714 0.25C32.6136 0.25 38.75 6.38643 38.75 13.9286C38.75 21.4707 32.6136 27.6071 25.0714 27.6071C17.5293 27.6071 11.3929 21.4707 11.3929 13.9286ZM13.6786 13.9286C13.6786 20.2105 18.7895 25.3214 25.0714 25.3214C31.3534 25.3214 36.4643 20.2105 36.4643 13.9286C36.4643 7.64661 31.3534 2.53571 25.0714 2.53571C18.7895 2.53571 13.6786 7.64661 13.6786 13.9286Z" fill="#FCD43E" stroke="#125408" stroke-width="0.5"/>
<path d="M26.4643 6.96423H23.6786V15.3214H32.0357V12.5357H26.4643V6.96423Z" fill="#044C06"/>
<rect x="2.78571" y="22.2858" width="19.5" height="16.7143" fill="white"/>
<path d="M5.57144 26.4644H8.35716V29.2501H5.57144V26.4644ZM5.57144 32.0358H8.35716V34.8215H5.57144V32.0358ZM11.1429 26.4644H13.9286V29.2501H11.1429V26.4644ZM11.1429 32.0358H13.9286V34.8215H11.1429V32.0358ZM16.7143 26.4644H19.5V29.2501H16.7143V26.4644ZM16.7143 32.0358H19.5V34.8215H16.7143V32.0358Z" fill="#074E09"/>
<path d="M2.78571 41.7857H22.2857C23.822 41.7857 25.0714 40.5363 25.0714 39V22.2857V19.5C25.0714 17.9637 23.822 16.7143 22.2857 16.7143H19.5V13.9286H16.7143V16.7143H8.35714V13.9286H5.57143V16.7143H2.78571C1.24939 16.7143 0 17.9637 0 19.5V22.2857V39C0 40.5363 1.24939 41.7857 2.78571 41.7857ZM22.2857 22.2857L22.2871 39H2.78571V22.2857H22.2857Z" fill="#074E09"/>
</svg>
