<svg width="25" height="25" viewBox="0 0 25 25" fill="none" xmlns="http://www.w3.org/2000/svg">
<path d="M5 23.0002H9H15H19C20.103 23.0002 21 22.1033 21 21.0002V12.0002C21 11.7352 20.895 11.4803 20.707 11.2933L12.707 3.29325C12.316 2.90225 11.684 2.90225 11.293 3.29325L3.293 11.2933C3.105 11.4803 3 11.7352 3 12.0002V21.0002C3 22.1033 3.897 23.0002 5 23.0002ZM10 21.0002V16.0002H14V21.0002H10ZM5 12.4142L12 5.41425L19 12.4142L19.001 21.0002H16V16.0002C16 14.8973 15.103 14.0002 14 14.0002H10C8.897 14.0002 8 14.8973 8 16.0002V21.0002H5V12.4142Z" fill="#EFAF29"/>
<path d="M21.8753 0L12.4989 9.375L3.12472 0L0 3.125L9.37417 12.5L0 21.875L3.12472 25L12.4989 15.625L21.8753 25L25 21.875L15.6258 12.5L25 3.125L21.8753 0Z" fill="#034B04"/>
</svg>
