<svg width="20" height="40" viewBox="0 0 20 40" fill="none" xmlns="http://www.w3.org/2000/svg">
<path d="M19.7429 30.3165L10.7429 20.3165C10.3639 19.8945 9.63593 19.8945 9.25693 20.3165L0.256934 30.3165C-0.00806627 30.6095 -0.0740664 31.0315 0.0869336 31.3925C0.246934 31.7535 0.604934 31.9855 0.999934 31.9855H2.99993V38.9855C2.99993 39.5375 3.44693 39.9855 3.99993 39.9855H6.99993C7.55293 39.9855 7.99993 39.5375 7.99993 38.9855V34.9855H11.9999V38.9855C11.9999 39.5375 12.4469 39.9855 12.9999 39.9855H15.9999C16.5529 39.9855 16.9999 39.5375 16.9999 38.9855V31.9855H18.9999C19.3949 31.9855 19.7529 31.7535 19.9129 31.3925C20.0739 31.0315 20.0079 30.6105 19.7429 30.3165Z" fill="#034B04"/>
<path d="M14 6.5H16C16 3.663 13.245 2.369 11 2.071V0H9V2.071C6.755 2.369 4 3.663 4 6.5C4 9.206 6.666 10.613 9 10.93V15.9C7.552 15.649 6 14.876 6 13.5H4C4 16.089 6.425 17.619 9 17.936V18.999V20H11V18.999V17.93C13.245 17.632 16 16.337 16 13.5C16 10.663 13.245 9.369 11 9.071V4.1C12.33 4.339 14 5.041 14 6.5ZM6 6.5C6 5.041 7.67 4.339 9 4.1V8.899C7.629 8.646 6 7.897 6 6.5ZM14 13.5C14 14.959 12.33 15.661 11 15.9V11.1C12.33 11.339 14 12.041 14 13.5Z" fill="#EFAF29"/>
</svg>
