<svg width="24" height="24" viewBox="0 0 24 24" fill="none" xmlns="http://www.w3.org/2000/svg">
<path d="M5.00305 22H9.00305H15.0031H19.0031C20.1061 22 21.0031 21.103 21.0031 20V11C21.0031 10.735 20.8981 10.48 20.7101 10.293L12.7101 2.29301C12.3191 1.90201 11.6871 1.90201 11.2961 2.29301L3.29605 10.293C3.10805 10.48 3.00305 10.735 3.00305 11V20C3.00305 21.103 3.90005 22 5.00305 22ZM10.0031 20V15H14.0031V20H10.0031ZM5.00305 11.414L12.0031 4.41401L19.0031 11.414L19.0041 20H16.0031V15C16.0031 13.897 15.1061 13 14.0031 13H10.0031C8.90005 13 8.00305 13.897 8.00305 15V20H5.00305V11.414Z" fill="white"/>
</svg>
