<svg width="122" height="95" viewBox="0 0 122 95" fill="none" xmlns="http://www.w3.org/2000/svg">
<path d="M116.547 0.953125V7.84375C106.797 11.4062 99.1562 17.0312 93.625 24.7188C88.0938 32.3125 85.3281 40.2344 85.3281 48.4844C85.3281 50.2656 85.6094 51.5781 86.1719 52.4219C86.5469 52.9844 86.9688 53.2656 87.4375 53.2656C87.9062 53.2656 88.6094 52.9375 89.5469 52.2812C92.5469 50.125 96.3438 49.0469 100.938 49.0469C106.281 49.0469 111.016 51.25 115.141 55.6562C119.266 59.9688 121.328 65.125 121.328 71.125C121.328 77.4062 118.938 82.9375 114.156 87.7188C109.469 92.5 103.75 94.8906 97 94.8906C89.125 94.8906 82.3281 91.6562 76.6094 85.1875C70.8906 78.7188 68.0312 70.0469 68.0312 59.1719C68.0312 46.5156 71.9219 35.1719 79.7031 25.1406C87.4844 15.1094 99.7656 7.04687 116.547 0.953125ZM48.9062 0.953125V7.84375C39.1562 11.4062 31.5156 17.0312 25.9844 24.7188C20.4531 32.3125 17.6875 40.2344 17.6875 48.4844C17.6875 50.2656 17.9688 51.5781 18.5312 52.4219C18.9062 52.9844 19.3281 53.2656 19.7969 53.2656C20.2656 53.2656 20.9688 52.9375 21.9062 52.2812C24.9062 50.125 28.7031 49.0469 33.2969 49.0469C38.6406 49.0469 43.375 51.25 47.5 55.6562C51.625 59.9688 53.6875 65.125 53.6875 71.125C53.6875 77.4062 51.2969 82.9375 46.5156 87.7188C41.8281 92.5 36.1094 94.8906 29.3594 94.8906C21.4844 94.8906 14.6875 91.6562 8.96875 85.1875C3.25 78.7188 0.390625 70.0469 0.390625 59.1719C0.390625 46.5156 4.28125 35.1719 12.0625 25.1406C19.8438 15.1094 32.125 7.04687 48.9062 0.953125Z" fill="#EFAF29"/>
</svg>
