<svg width="39" height="46" viewBox="0 0 39 46" fill="none" xmlns="http://www.w3.org/2000/svg">
<path d="M21.4075 43.0524L21.4105 43.1458H17.5874L17.5905 43.0524C17.5979 42.8288 17.6087 42.5092 17.622 42.1257L17.622 42.1257L17.6221 42.1204C17.6323 41.3533 17.6446 40.3308 17.6569 39.3084C17.6825 38.2797 17.664 37.2535 17.6395 36.4843C17.6363 36.0969 17.6216 35.774 17.6076 35.5473C17.6005 35.4336 17.5937 35.3441 17.5886 35.2826C17.5873 35.2678 17.5862 35.2546 17.5852 35.2431L19.0636 31.0626L19.1735 30.7518L18.8445 30.7298C16.5364 30.5761 14.2751 29.631 12.5166 27.8726C8.66534 24.0213 8.66633 17.7539 12.5166 13.9037C16.3669 10.0534 22.6342 10.0524 26.4855 13.9037C30.3367 17.7549 30.3357 24.0223 26.4855 27.8726C24.727 29.631 22.4658 30.5761 20.1567 30.7288L19.8275 30.7506L19.9375 31.0616L21.4159 35.2421C21.4148 35.2536 21.4137 35.2668 21.4125 35.2815C21.4074 35.343 21.4005 35.4326 21.3935 35.5463C21.3795 35.773 21.3647 36.0959 21.3616 36.4833C21.337 37.2529 21.3185 38.2797 21.3442 39.3089L21.5942 39.3027L21.3442 39.3057L21.3442 39.3087C21.3565 40.3309 21.3687 41.3522 21.3759 42.1194L21.3758 42.1194L21.376 42.1257C21.3893 42.5092 21.4001 42.8288 21.4075 43.0524ZM14.2091 15.5962C11.291 18.5143 11.291 23.2619 14.2091 26.18C17.1272 29.0982 21.8748 29.0982 24.793 26.18C27.7111 23.2619 27.7111 18.5143 24.793 15.5962C21.8748 12.6781 17.1272 12.6781 14.2091 15.5962Z" fill="#FDD43E" stroke="#0E520F" stroke-width="0.5"/>
<path d="M14.4445 11.8182L13.9491 11.886L13.9537 11.9192L13.9626 11.9515L14.4445 11.8182ZM14.4445 11.8182C13.9626 11.9515 13.9626 11.9516 13.9627 11.9517L13.9627 11.9519L13.9629 11.9524L13.9633 11.954L13.9647 11.959L13.9698 11.9768C13.9741 11.992 13.9804 12.0136 13.9886 12.041C14.005 12.0958 14.0291 12.174 14.0604 12.2698C14.1229 12.4611 14.2151 12.7251 14.3342 13.0164C14.5648 13.5806 14.9236 14.3175 15.4041 14.798C16.3091 15.703 17.1092 15.9865 18.2754 16.2456C19.3481 16.484 20.046 16.484 21.1186 16.2456C22.2849 15.9865 23.0849 15.703 23.99 14.798C24.895 13.893 25.1785 13.0929 25.4376 11.9266C25.676 10.854 25.676 10.1561 25.4376 9.08344C25.1785 7.9172 24.895 7.1171 23.99 6.21209C23.0849 5.3071 22.2849 5.02359 21.1186 4.76442C20.046 4.52606 19.3481 4.52606 18.2754 4.76442C17.1092 5.02358 16.3091 5.30707 15.4041 6.2121C14.4991 7.11711 14.2156 7.91723 13.9564 9.08344C13.8296 9.654 13.8336 10.3676 13.8618 10.9066C13.8762 11.1827 13.8979 11.4258 13.9159 11.6001C13.9249 11.6874 13.9331 11.7578 13.9391 11.8068L13.9462 11.864L13.9483 11.8796L13.9489 11.884L13.949 11.8853L13.9491 11.8857L13.9491 11.8859C13.9491 11.8859 13.9491 11.886 14.4445 11.8182ZM29.7021 10.505L29.7021 10.5073C29.7165 13.7175 28.1266 17.0027 26.1432 19.8348C24.1674 22.6557 21.8471 24.9627 20.4977 26.2047C20.0234 26.6412 19.3499 26.6453 18.8752 26.2161C17.5171 24.9883 15.2021 22.706 13.2341 19.8923C11.2593 17.0687 9.67728 13.7712 9.692 10.5007V10.4985C9.692 4.98917 14.1808 0.5 19.697 0.5C25.2131 0.5 29.7021 4.98896 29.7021 10.505Z" fill="#7FA083" stroke="#0E520F"/>
</svg>
