<svg width="23" height="30" viewBox="0 0 23 30" fill="none" xmlns="http://www.w3.org/2000/svg">
<path d="M22.7429 10.3165L13.7429 0.3165C13.3639 -0.1055 12.6359 -0.1055 12.2569 0.3165L3.25693 10.3165C2.99193 10.6095 2.92593 11.0315 3.08693 11.3925C3.24693 11.7535 3.60493 11.9855 3.99993 11.9855H5.99993V18.9855C5.99993 19.5375 6.44693 19.9855 6.99993 19.9855H9.99993C10.5529 19.9855 10.9999 19.5375 10.9999 18.9855V14.9855H14.9999V18.9855C14.9999 19.5375 15.4469 19.9855 15.9999 19.9855H18.9999C19.5529 19.9855 19.9999 19.5375 19.9999 18.9855V11.9855H21.9999C22.3949 11.9855 22.7529 11.7535 22.9129 11.3925C23.0739 11.0315 23.0079 10.6105 22.7429 10.3165Z" fill="#EFAF29"/>
<path d="M15.726 22.0199L12 24.9999H7V23.9999H11.065C11.464 23.9999 11.703 23.5549 11.481 23.2229L10.593 21.8909C10.223 21.3339 9.599 20.9999 8.93 20.9999H1C0.447 20.9999 0 21.4469 0 21.9999V27.9999C0 29.1039 0.896 29.9999 2 29.9999H11.639C12.504 29.9999 13.327 29.6269 13.897 28.9759L20 21.9999L18.548 21.5159C17.583 21.1939 16.521 21.3839 15.726 22.0199Z" fill="#034B04"/>
</svg>
