<svg width="47" height="46" viewBox="0 0 47 46" fill="none" xmlns="http://www.w3.org/2000/svg">
<path d="M11 8H5V16H3V7C3 6.447 3.447 6 4 6H11V3L16 7L11 11V8Z" fill="#EFAF29"/>
<path d="M41 41H35V38L30 42L35 46V43H42C42.553 43 43 42.553 43 42V33H41V41Z" fill="#EFAF29"/>
<path d="M1.00019 37.0002H2.00019V39.0002V44.0002C2.00019 45.1033 2.89719 46.0002 4.00019 46.0002H7.00019H13.0002H16.0002C17.1032 46.0002 18.0002 45.1033 18.0002 44.0002V39.0002V37.0002H19.0002C19.4042 37.0002 19.7702 36.7563 19.9242 36.3833C20.0792 36.0093 19.9932 35.5793 19.7072 35.2933L10.7072 26.2932C10.3162 25.9022 9.68419 25.9022 9.29319 26.2932L0.293189 35.2933C0.00718924 35.5793 -0.0788107 36.0093 0.0761893 36.3833C0.230189 36.7563 0.596189 37.0002 1.00019 37.0002ZM8.00019 44.0002V39.0002H12.0002V44.0002H8.00019ZM10.0002 28.4143L16.0002 34.4142V39.0002L16.0012 44.0002H14.0002V39.0002C14.0002 37.8973 13.1032 37.0002 12.0002 37.0002H8.00019C6.89719 37.0002 6.00019 37.8973 6.00019 39.0002V44.0002H4.00019V39.0002V36.0002V34.4142L10.0002 28.4143Z" fill="#034B04"/>
<path d="M28 11.0002H29V13.0002V18.0002C29 19.1033 29.897 20.0002 31 20.0002H34H40H43C44.103 20.0002 45 19.1033 45 18.0002V13.0002V11.0002H46C46.404 11.0002 46.77 10.7563 46.924 10.3833C47.079 10.0093 46.993 9.57925 46.707 9.29325L37.707 0.29325C37.316 -0.09775 36.684 -0.09775 36.293 0.29325L27.293 9.29325C27.007 9.57925 26.921 10.0093 27.076 10.3833C27.23 10.7563 27.596 11.0002 28 11.0002ZM35 18.0002V13.0002H39V18.0002H35ZM37 2.41425L43 8.41425V13.0002L43.001 18.0002H41V13.0002C41 11.8973 40.103 11.0002 39 11.0002H35C33.897 11.0002 33 11.8973 33 13.0002V18.0002H31V13.0002V10.0002V8.41425L37 2.41425Z" fill="#034B04"/>
</svg>
