<svg width="111" height="15" viewBox="0 0 111 15" fill="none" xmlns="http://www.w3.org/2000/svg">
<path d="M13.7169 5.73688C13.6363 5.50063 13.4232 5.33375 13.1744 5.31438L9.6113 5.03125L8.06942 1.61813C7.9688 1.39375 7.74567 1.25 7.50005 1.25C7.25442 1.25 7.0313 1.39375 6.93067 1.6175L5.3888 5.03125L1.82567 5.31438C1.5813 5.33375 1.37067 5.49438 1.28755 5.725C1.20442 5.95563 1.26317 6.21375 1.4388 6.385L4.07192 8.95188L3.14067 12.9844C3.08317 13.2338 3.1838 13.4931 3.39442 13.6388C3.50192 13.7125 3.62567 13.75 3.75005 13.75C3.87067 13.75 3.99192 13.715 4.09692 13.645L7.50005 11.3763L10.9032 13.645C11.1207 13.79 11.4063 13.7844 11.6188 13.63C11.83 13.4756 11.9232 13.205 11.8513 12.9538L10.7082 8.95375L13.5432 6.4025C13.7288 6.235 13.7969 5.97375 13.7169 5.73688Z" fill="#FD661F"/>
<path d="M37.7169 5.73688C37.6363 5.50063 37.4232 5.33375 37.1744 5.31438L33.6113 5.03125L32.0694 1.61813C31.9688 1.39375 31.7457 1.25 31.5 1.25C31.2544 1.25 31.0313 1.39375 30.9307 1.6175L29.3888 5.03125L25.8257 5.31438C25.5813 5.33375 25.3707 5.49438 25.2875 5.725C25.2044 5.95563 25.2632 6.21375 25.4388 6.385L28.0719 8.95188L27.1407 12.9844C27.0832 13.2338 27.1838 13.4931 27.3944 13.6388C27.5019 13.7125 27.6257 13.75 27.75 13.75C27.8707 13.75 27.9919 13.715 28.0969 13.645L31.5 11.3763L34.9032 13.645C35.1207 13.79 35.4063 13.7844 35.6188 13.63C35.83 13.4756 35.9232 13.205 35.8513 12.9538L34.7082 8.95375L37.5432 6.4025C37.7288 6.235 37.7969 5.97375 37.7169 5.73688Z" fill="#FD661F"/>
<path d="M61.7169 5.73688C61.6363 5.50063 61.4232 5.33375 61.1744 5.31438L57.6113 5.03125L56.0694 1.61813C55.9688 1.39375 55.7457 1.25 55.5 1.25C55.2544 1.25 55.0313 1.39375 54.9307 1.6175L53.3888 5.03125L49.8257 5.31438C49.5813 5.33375 49.3707 5.49438 49.2875 5.725C49.2044 5.95563 49.2632 6.21375 49.4388 6.385L52.0719 8.95188L51.1407 12.9844C51.0832 13.2338 51.1838 13.4931 51.3944 13.6388C51.5019 13.7125 51.6257 13.75 51.75 13.75C51.8707 13.75 51.9919 13.715 52.0969 13.645L55.5 11.3763L58.9032 13.645C59.1207 13.79 59.4063 13.7844 59.6188 13.63C59.83 13.4756 59.9232 13.205 59.8513 12.9538L58.7082 8.95375L61.5432 6.4025C61.7288 6.235 61.7969 5.97375 61.7169 5.73688Z" fill="#FD661F"/>
<path d="M85.7169 5.73688C85.6363 5.50063 85.4232 5.33375 85.1744 5.31438L81.6113 5.03125L80.0694 1.61813C79.9688 1.39375 79.7457 1.25 79.5 1.25C79.2544 1.25 79.0313 1.39375 78.9307 1.6175L77.3888 5.03125L73.8257 5.31438C73.5813 5.33375 73.3707 5.49438 73.2875 5.725C73.2044 5.95563 73.2632 6.21375 73.4388 6.385L76.0719 8.95188L75.1407 12.9844C75.0832 13.2338 75.1838 13.4931 75.3944 13.6388C75.5019 13.7125 75.6257 13.75 75.75 13.75C75.8707 13.75 75.9919 13.715 76.0969 13.645L79.5 11.3763L82.9032 13.645C83.1207 13.79 83.4063 13.7844 83.6188 13.63C83.83 13.4756 83.9232 13.205 83.8513 12.9538L82.7082 8.95375L85.5432 6.4025C85.7288 6.235 85.7969 5.97375 85.7169 5.73688Z" fill="#FD661F"/>
<path d="M109.717 5.73688C109.636 5.50063 109.423 5.33375 109.174 5.31438L105.611 5.03125L104.069 1.61813C103.969 1.39375 103.746 1.25 103.5 1.25C103.254 1.25 103.031 1.39375 102.931 1.6175L101.389 5.03125L97.8257 5.31438C97.5813 5.33375 97.3707 5.49438 97.2875 5.725C97.2044 5.95563 97.2632 6.21375 97.4388 6.385L100.072 8.95188L99.1407 12.9844C99.0832 13.2338 99.1838 13.4931 99.3944 13.6388C99.5019 13.7125 99.6257 13.75 99.75 13.75C99.8707 13.75 99.9919 13.715 100.097 13.645L103.5 11.3763L106.903 13.645C107.121 13.79 107.406 13.7844 107.619 13.63C107.83 13.4756 107.923 13.205 107.851 12.9538L106.708 8.95375L109.543 6.4025C109.729 6.235 109.797 5.97375 109.717 5.73688Z" fill="#FD661F"/>
</svg>
